<svg width="304" height="53" viewBox="0 0 304 53" fill="none" xmlns="http://www.w3.org/2000/svg">
<path d="M0.5 40V38.5L2.55 38.3C3.28333 38.2333 3.86667 38.0833 4.3 37.85C4.73333 37.6167 5.03333 37.2667 5.2 36.8C5.4 36.3 5.5 35.6667 5.5 34.9V10.1C5.5 9.3 5.4 8.66666 5.2 8.2C5.03333 7.73333 4.73333 7.38333 4.3 7.15C3.86667 6.91667 3.28333 6.76667 2.55 6.7L0.5 6.5V5H14.85C18.8167 5 21.8333 5.75 23.9 7.25C25.9667 8.75 27 10.9333 27 13.8C27 15.9667 26.4833 17.85 25.45 19.45C24.4167 21.0167 22.9333 22.2333 21 23.1C19.1 23.9667 16.8 24.4167 14.1 24.45L8.9 24.5V22.5H12.7C14.6333 22.5 16.2833 22.1833 17.65 21.55C19.0167 20.8833 20.0667 19.95 20.8 18.75C21.5333 17.5167 21.9 16.0333 21.9 14.3C21.9 11.9333 21.2833 10.1333 20.05 8.9C18.8167 7.63333 17.0333 7 14.7 7C12.8333 7 11.6167 7.11666 11.05 7.35C10.4833 7.58333 10.2 8.1 10.2 8.9V34.9C10.2 35.7 10.3 36.35 10.5 36.85C10.7333 37.3167 11.1 37.6667 11.6 37.9C12.1 38.1333 12.7833 38.2833 13.65 38.35L15.7 38.5V40H0.5ZM40.7379 40.5C38.2712 40.5 36.1046 39.9333 34.2379 38.8C32.3712 37.6333 30.9212 36.0667 29.8879 34.1C28.8879 32.1333 28.3879 29.9167 28.3879 27.45C28.3879 24.75 28.9712 22.35 30.1379 20.25C31.3379 18.15 32.9379 16.5 34.9379 15.3C36.9379 14.1 39.1379 13.5 41.5379 13.5C44.1712 13.5 46.2879 14.25 47.8879 15.75C49.4879 17.25 50.2879 19.4333 50.2879 22.3C50.2879 22.5 50.2879 22.7167 50.2879 22.95C50.2879 23.15 50.2546 23.4333 50.1879 23.8L50.0879 24.5H32.1379V22.6H45.3379C45.4379 21.9333 45.4879 21.3167 45.4879 20.75C45.4879 19.0833 45.0546 17.7833 44.1879 16.85C43.3212 15.9167 42.0712 15.45 40.4379 15.45C38.2046 15.45 36.3879 16.3333 34.9879 18.1C33.6212 19.8667 32.9379 22.2333 32.9379 25.2C32.9379 27.4333 33.3379 29.45 34.1379 31.25C34.9712 33.0167 36.1379 34.4167 37.6379 35.45C39.1712 36.45 40.9712 36.95 43.0379 36.95C44.2046 36.95 45.3379 36.75 46.4379 36.35C47.5379 35.95 48.7046 35.2833 49.9379 34.35L50.9379 35.3C49.3379 37.1333 47.7212 38.4667 46.0879 39.3C44.4546 40.1 42.6712 40.5 40.7379 40.5ZM53.518 40V38.5L55.018 38.25C56.0513 38.0833 56.718 37.8167 57.018 37.45C57.3513 37.05 57.518 36.3333 57.518 35.3V20.4C57.518 19.2667 57.2513 18.5 56.718 18.1C56.218 17.6667 55.1846 17.35 53.618 17.15V15.9L61.168 13.7H61.868V17.7H62.318C63.1513 16.5 64.168 15.5167 65.368 14.75C66.6013 13.9833 68.0013 13.6 69.568 13.6C70.768 13.6 71.668 13.85 72.268 14.35C72.9013 14.85 73.218 15.5 73.218 16.3C73.218 16.8333 73.0013 17.3167 72.568 17.75C72.168 18.1833 71.6846 18.4833 71.118 18.65C70.5513 18.7833 70.0013 18.7 69.468 18.4L67.068 17C66.668 16.7667 66.1846 16.8 65.618 17.1C65.0513 17.4 64.4846 17.8 63.918 18.3C63.3846 18.7667 62.9346 19.2333 62.568 19.7C62.2013 20.1333 62.018 20.3833 62.018 20.45V35.3C62.018 36.3333 62.1846 37.05 62.518 37.45C62.8513 37.8167 63.518 38.0667 64.518 38.2L67.018 38.5V40H53.518ZM82.241 40.5C80.9743 40.5 79.6243 40.35 78.191 40.05C76.791 39.75 75.641 39.35 74.741 38.85V32.1H76.191C76.5577 34.4333 77.3577 36.1167 78.591 37.15C79.8577 38.15 81.291 38.65 82.891 38.65C84.4243 38.65 85.6243 38.25 86.491 37.45C87.3577 36.65 87.791 35.6 87.791 34.3C87.791 33.1333 87.441 32.2333 86.741 31.6C86.0743 30.9333 85.1577 30.3 83.991 29.7L80.391 27.8C78.2577 26.6667 76.841 25.5333 76.141 24.4C75.441 23.2667 75.091 22.1333 75.091 21C75.091 19.5 75.491 18.2 76.291 17.1C77.1243 15.9667 78.2577 15.0833 79.691 14.45C81.1243 13.8167 82.7577 13.5 84.591 13.5C85.8243 13.5 86.9744 13.6333 88.041 13.9C89.141 14.1667 90.1243 14.5 90.991 14.9V20.7H89.541C89.341 19.7333 89.0077 18.85 88.541 18.05C88.0743 17.25 87.441 16.6 86.641 16.1C85.8743 15.6 84.891 15.35 83.691 15.35C82.191 15.35 81.041 15.7333 80.241 16.5C79.441 17.2667 79.041 18.2167 79.041 19.35C79.041 20.2833 79.3243 21.1 79.891 21.8C80.491 22.5 81.4577 23.2 82.791 23.9L86.091 25.6C87.9577 26.5333 89.3577 27.5 90.291 28.5C91.2577 29.5 91.741 30.8333 91.741 32.5C91.741 34.2333 91.291 35.7 90.391 36.9C89.491 38.0667 88.3077 38.9667 86.841 39.6C85.4077 40.2 83.8743 40.5 82.241 40.5ZM94.4242 52.35V50.85L95.9242 50.6C96.9576 50.4333 97.6242 50.15 97.9242 49.75C98.2576 49.3833 98.4242 48.6833 98.4242 47.65V20.4C98.4242 19.3333 98.1909 18.5833 97.7242 18.15C97.2576 17.6833 96.1909 17.35 94.5242 17.15V15.9L102.074 13.7H102.774V17.35H103.074C104.008 16.45 104.924 15.7167 105.824 15.15C106.724 14.5833 107.641 14.1667 108.574 13.9C109.508 13.6333 110.508 13.5 111.574 13.5C113.874 13.5 115.891 14.05 117.624 15.15C119.391 16.2167 120.758 17.7 121.724 19.6C122.724 21.5 123.224 23.7167 123.224 26.25C123.224 29.0167 122.608 31.4833 121.374 33.65C120.174 35.7833 118.524 37.4667 116.424 38.7C114.324 39.9 111.941 40.5 109.274 40.5C108.141 40.5 107.041 40.3667 105.974 40.1C104.908 39.8667 103.891 39.5167 102.924 39.05V47.15C102.924 48.2833 103.124 49.1 103.524 49.6C103.924 50.1 104.641 50.4167 105.674 50.55L107.924 50.85V52.35H94.4242ZM110.024 38.6C112.691 38.6 114.774 37.7 116.274 35.9C117.774 34.0667 118.524 31.5 118.524 28.2C118.524 25.9 118.158 23.9 117.424 22.2C116.724 20.4667 115.708 19.1333 114.374 18.2C113.041 17.2333 111.441 16.75 109.574 16.75C108.341 16.75 107.158 16.9667 106.024 17.4C104.891 17.8333 103.858 18.4833 102.924 19.35V30.85C102.924 32.45 103.191 33.8333 103.724 35C104.258 36.1333 105.041 37.0167 106.074 37.65C107.141 38.2833 108.458 38.6 110.024 38.6ZM139.175 40.5C136.709 40.5 134.542 39.9333 132.675 38.8C130.809 37.6333 129.359 36.0667 128.325 34.1C127.325 32.1333 126.825 29.9167 126.825 27.45C126.825 24.75 127.409 22.35 128.575 20.25C129.775 18.15 131.375 16.5 133.375 15.3C135.375 14.1 137.575 13.5 139.975 13.5C142.609 13.5 144.725 14.25 146.325 15.75C147.925 17.25 148.725 19.4333 148.725 22.3C148.725 22.5 148.725 22.7167 148.725 22.95C148.725 23.15 148.692 23.4333 148.625 23.8L148.525 24.5H130.575V22.6H143.775C143.875 21.9333 143.925 21.3167 143.925 20.75C143.925 19.0833 143.492 17.7833 142.625 16.85C141.759 15.9167 140.509 15.45 138.875 15.45C136.642 15.45 134.825 16.3333 133.425 18.1C132.059 19.8667 131.375 22.2333 131.375 25.2C131.375 27.4333 131.775 29.45 132.575 31.25C133.409 33.0167 134.575 34.4167 136.075 35.45C137.609 36.45 139.409 36.95 141.475 36.95C142.642 36.95 143.775 36.75 144.875 36.35C145.975 35.95 147.142 35.2833 148.375 34.35L149.375 35.3C147.775 37.1333 146.159 38.4667 144.525 39.3C142.892 40.1 141.109 40.5 139.175 40.5ZM165.155 40.5C162.722 40.5 160.555 39.9333 158.655 38.8C156.789 37.6333 155.322 36.0667 154.255 34.1C153.189 32.1 152.655 29.85 152.655 27.35C152.655 24.6833 153.239 22.3167 154.405 20.25C155.605 18.15 157.239 16.5 159.305 15.3C161.372 14.1 163.705 13.5 166.305 13.5C168.039 13.5 169.539 13.7333 170.805 14.2C172.105 14.6667 173.105 15.2333 173.805 15.9C174.539 16.5667 174.905 17.2 174.905 17.8C174.905 18.3333 174.639 18.7833 174.105 19.15C173.572 19.4833 172.989 19.6833 172.355 19.75C171.722 19.8167 171.239 19.7167 170.905 19.45L167.705 16.6C167.272 16.2 166.839 15.9333 166.405 15.8C165.972 15.6333 165.422 15.55 164.755 15.55C163.222 15.55 161.889 16 160.755 16.9C159.622 17.8 158.739 19.0167 158.105 20.55C157.505 22.05 157.205 23.7333 157.205 25.6C157.205 27.8 157.622 29.75 158.455 31.45C159.322 33.15 160.505 34.5 162.005 35.5C163.539 36.4667 165.272 36.95 167.205 36.95C168.372 36.95 169.522 36.75 170.655 36.35C171.789 35.95 172.972 35.2833 174.205 34.35L175.205 35.3C173.639 37.1333 172.039 38.4667 170.405 39.3C168.772 40.1 167.022 40.5 165.155 40.5ZM181.433 40V38.5L182.983 38.35C183.983 38.25 184.749 38.0833 185.283 37.85C185.816 37.6167 186.183 37.2667 186.383 36.8C186.583 36.3 186.683 35.6667 186.683 34.9V6.95L181.383 7.05C179.783 7.08333 178.566 7.31666 177.733 7.75C176.899 8.18333 176.266 8.83333 175.833 9.7C175.399 10.5333 174.966 11.6 174.533 12.9H173.033L173.483 4.7C174.449 4.8 175.566 4.88333 176.833 4.95C178.133 4.98333 179.416 5 180.683 5H197.383C198.449 5 199.633 4.98333 200.933 4.95C202.266 4.88333 203.483 4.8 204.583 4.7L205.033 12.9H203.533C203.099 11.6 202.666 10.5333 202.233 9.7C201.799 8.83333 201.166 8.18333 200.333 7.75C199.499 7.31666 198.283 7.08333 196.683 7.05L191.383 6.95V34.9C191.383 35.6667 191.483 36.3 191.683 36.8C191.883 37.2667 192.249 37.6167 192.783 37.85C193.349 38.0833 194.116 38.25 195.083 38.35L196.633 38.5V40H181.433ZM203.616 40V38.5L205.116 38.25C206.149 38.0833 206.816 37.8167 207.116 37.45C207.449 37.05 207.616 36.3333 207.616 35.3V20.4C207.616 19.2667 207.349 18.5 206.816 18.1C206.316 17.6667 205.282 17.35 203.716 17.15V15.9L211.266 13.7H211.966V17.7H212.416C213.249 16.5 214.266 15.5167 215.466 14.75C216.699 13.9833 218.099 13.6 219.666 13.6C220.866 13.6 221.766 13.85 222.366 14.35C222.999 14.85 223.316 15.5 223.316 16.3C223.316 16.8333 223.099 17.3167 222.666 17.75C222.266 18.1833 221.782 18.4833 221.216 18.65C220.649 18.7833 220.099 18.7 219.566 18.4L217.166 17C216.766 16.7667 216.282 16.8 215.716 17.1C215.149 17.4 214.582 17.8 214.016 18.3C213.482 18.7667 213.032 19.2333 212.666 19.7C212.299 20.1333 212.116 20.3833 212.116 20.45V35.3C212.116 36.3333 212.282 37.05 212.616 37.45C212.949 37.8167 213.616 38.0667 214.616 38.2L217.116 38.5V40H203.616ZM230.53 40.5C229.03 40.5 227.847 40.2667 226.98 39.8C226.147 39.3 225.547 38.6833 225.18 37.95C224.847 37.1833 224.68 36.4167 224.68 35.65C224.68 34.5167 225.08 33.3833 225.88 32.25C226.714 31.0833 228.064 29.9167 229.93 28.75C231.83 27.5833 234.38 26.4333 237.58 25.3L238.83 24.85L238.98 19.9C239.014 18.6667 238.63 17.65 237.83 16.85C237.03 16.0167 235.914 15.6 234.48 15.6C233.347 15.6 232.347 15.9833 231.48 16.75C230.614 17.5167 229.997 18.7167 229.63 20.35C229.564 20.6833 229.214 21 228.58 21.3C227.98 21.5667 227.18 21.7 226.18 21.7C225.614 21.7 225.18 21.6333 224.88 21.5C224.58 21.3667 224.497 21.0667 224.63 20.6C225.164 19.3 226.047 18.1167 227.28 17.05C228.514 15.9833 229.914 15.1333 231.48 14.5C233.047 13.8333 234.597 13.5 236.13 13.5C238.297 13.5 240.064 14.0167 241.43 15.05C242.83 16.0833 243.497 17.5333 243.43 19.4L242.93 34.65C242.897 35.95 243.214 36.7833 243.88 37.15C244.58 37.5167 245.897 37.7667 247.83 37.9V39.05L246.08 39.5C245.014 39.8333 244.164 40.05 243.53 40.15C242.93 40.2833 242.464 40.35 242.13 40.35C241.23 40.35 240.547 40.15 240.08 39.75C239.647 39.35 239.33 38.8833 239.13 38.35C238.964 37.8167 238.847 37.3833 238.78 37.05H238.38C236.947 38.45 235.597 39.3833 234.33 39.85C233.097 40.2833 231.83 40.5 230.53 40.5ZM233.38 37.2C234.58 37.2 235.564 37.0167 236.33 36.65C237.13 36.25 237.847 35.8333 238.48 35.4L238.78 26.55L238.38 26.7C235.98 27.6 234.147 28.4833 232.88 29.35C231.614 30.2167 230.747 31.05 230.28 31.85C229.847 32.65 229.63 33.3833 229.63 34.05C229.63 36.15 230.88 37.2 233.38 37.2ZM261.327 40.5C259.06 40.5 257.044 39.95 255.277 38.85C253.51 37.75 252.127 36.2333 251.127 34.3C250.16 32.3667 249.677 30.1667 249.677 27.7C249.677 24.9667 250.26 22.5333 251.427 20.4C252.627 18.2667 254.244 16.5833 256.277 15.35C258.31 14.1167 260.594 13.5 263.127 13.5C264.294 13.5 265.46 13.6333 266.627 13.9C267.794 14.1667 268.91 14.65 269.977 15.35V6.7C269.977 5.63333 269.744 4.88333 269.277 4.45C268.81 3.98333 267.744 3.65 266.077 3.45V2.2L273.777 -5.96046e-07H274.477V33.7C274.477 34.7333 274.71 35.4833 275.177 35.95C275.644 36.4167 276.744 36.75 278.477 36.95V38.3L270.827 40.1H270.127V36.65H269.677C268.744 37.65 267.794 38.4333 266.827 39C265.894 39.5667 264.96 39.95 264.027 40.15C263.127 40.3833 262.227 40.5 261.327 40.5ZM263.677 37.25C264.71 37.25 265.76 37.0667 266.827 36.7C267.894 36.3 268.944 35.5667 269.977 34.5V22.9C269.977 21.1333 269.627 19.7 268.927 18.6C268.227 17.5 267.327 16.7 266.227 16.2C265.16 15.6667 264.01 15.4 262.777 15.4C260.044 15.4 257.96 16.2667 256.527 18C255.094 19.7333 254.377 22.2333 254.377 25.5C254.377 27.8667 254.76 29.9333 255.527 31.7C256.294 33.4667 257.377 34.8333 258.777 35.8C260.177 36.7667 261.81 37.25 263.677 37.25ZM293.277 40.5C290.81 40.5 288.644 39.9333 286.777 38.8C284.91 37.6333 283.46 36.0667 282.427 34.1C281.427 32.1333 280.927 29.9167 280.927 27.45C280.927 24.75 281.51 22.35 282.677 20.25C283.877 18.15 285.477 16.5 287.477 15.3C289.477 14.1 291.677 13.5 294.077 13.5C296.71 13.5 298.827 14.25 300.427 15.75C302.027 17.25 302.827 19.4333 302.827 22.3C302.827 22.5 302.827 22.7167 302.827 22.95C302.827 23.15 302.794 23.4333 302.727 23.8L302.627 24.5H284.677V22.6H297.877C297.977 21.9333 298.027 21.3167 298.027 20.75C298.027 19.0833 297.594 17.7833 296.727 16.85C295.86 15.9167 294.61 15.45 292.977 15.45C290.744 15.45 288.927 16.3333 287.527 18.1C286.16 19.8667 285.477 22.2333 285.477 25.2C285.477 27.4333 285.877 29.45 286.677 31.25C287.51 33.0167 288.677 34.4167 290.177 35.45C291.71 36.45 293.51 36.95 295.577 36.95C296.744 36.95 297.877 36.75 298.977 36.35C300.077 35.95 301.244 35.2833 302.477 34.35L303.477 35.3C301.877 37.1333 300.26 38.4667 298.627 39.3C296.994 40.1 295.21 40.5 293.277 40.5Z" fill="black"/>
</svg>
